<?xml version="1.0" encoding="UTF-8" standalone="no"?>
<!DOCTYPE svg PUBLIC "-//W3C//DTD SVG 1.1//EN" "http://www.w3.org/Graphics/SVG/1.1/DTD/svg11.dtd">
<svg width="100%" height="100%" viewBox="0 0 200 200" version="1.1" xmlns="http://www.w3.org/2000/svg" xmlns:xlink="http://www.w3.org/1999/xlink" xml:space="preserve" xmlns:serif="http://www.serif.com/" style="fill-rule:evenodd;clip-rule:evenodd;stroke-linecap:round;stroke-linejoin:round;stroke-miterlimit:1.5;">
    <g transform="matrix(5.07578e-16,8.28937,-3.26983,2.00219e-16,209.978,-252.963)">
        <path d="M41.358,5.467C35.956,5.467 31.57,16.847 31.57,30.864C31.57,44.881 35.956,56.261 41.358,56.261C36.712,55.076 32.94,44.104 32.94,30.864C32.94,17.624 36.712,6.653 41.358,5.467Z" style="fill:currentColor"/>
    </g>
    <g transform="matrix(-7.17881,-4.14469,1.63492,-2.83176,356.922,366.498)">
        <path d="M41.358,5.467C35.956,5.467 31.57,16.847 31.57,30.864C31.57,44.881 35.956,56.261 41.358,56.261C36.712,55.076 32.94,44.104 32.94,30.864C32.94,17.624 36.712,6.653 41.358,5.467Z" style="fill:currentColor"/>
    </g>
    <g transform="matrix(7.17881,-4.14469,1.63492,2.83176,-253.988,181.117)">
        <path d="M41.358,5.467C35.956,5.467 31.57,16.847 31.57,30.864C31.57,44.881 35.956,56.261 41.358,56.261C36.712,55.076 32.94,44.104 32.94,30.864C32.94,17.624 36.712,6.653 41.358,5.467Z" style="fill:currentColor"/>
    </g>
</svg>
